<?xml version="1.0" standalone="no"?>
<!DOCTYPE svg PUBLIC "-//W3C//DTD SVG 20010904//EN"
 "http://www.w3.org/TR/2001/REC-SVG-20010904/DTD/svg10.dtd">
<svg version="1.0" xmlns="http://www.w3.org/2000/svg"
 width="400.000000pt" height="400.000000pt" viewBox="0 0 400.000000 400.000000"
 preserveAspectRatio="xMidYMid meet">
<metadata>
Created by potrace 1.11, written by Peter Selinger 2001-2013
</metadata>
<g transform="translate(0.000000,400.000000) scale(0.100000,-0.100000)"
fill="#000000" stroke="none">
<path d="M1897 3944 c-1 -1 -33 -4 -72 -8 -140 -12 -168 -17 -320 -55 -179
-45 -337 -111 -510 -214 -153 -91 -271 -185 -396 -312 -318 -324 -514 -748
-556 -1200 -18 -199 -6 -382 43 -628 35 -177 158 -461 276 -637 104 -154 257
-324 392 -435 273 -224 645 -384 1006 -432 63 -8 426 -8 483 1 231 33 436 95
619 187 122 61 122 61 237 138 354 237 618 583 760 995 22 64 40 117 40 119
-1 1 4 20 9 42 6 22 13 55 16 73 3 17 8 44 11 60 44 241 39 497 -14 753 -111
533 -465 1018 -941 1291 -134 76 -367 175 -455 192 -11 3 -49 11 -85 20 -36 8
-83 18 -105 22 -22 3 -42 7 -46 9 -14 9 -382 27 -392 19z m473 -129 c30 -4 67
-9 81 -10 36 -3 126 -53 142 -79 38 -62 82 -225 102 -381 4 -27 9 -66 12 -85
3 -19 6 -50 7 -69 1 -37 -9 -43 -99 -57 -22 -3 -42 -7 -45 -9 -3 -2 -36 -6
-75 -10 -111 -11 -118 -12 -165 -19 -25 -3 -81 -8 -125 -12 -44 -3 -96 -7
-115 -9 -225 -21 -664 -25 -738 -8 -72 17 -78 30 -54 105 11 34 39 124 62 198
81 259 138 381 184 396 49 16 207 -8 233 -35 9 -9 27 -24 41 -33 l26 -17 -30
-12 c-42 -17 -94 -16 -131 3 -27 14 -34 14 -44 2 -9 -11 -9 -21 1 -43 11 -29
14 -30 69 -26 75 5 215 57 293 108 61 40 267 117 298 112 8 -1 40 -6 70 -10z
m867 -797 c18 -7 33 -16 33 -20 0 -5 -15 -2 -34 6 -19 8 -37 12 -40 8 -3 -3
-6 0 -6 6 0 15 6 15 47 0z m-2092 -125 c-4 -27 -11 -70 -17 -96 l-10 -48 -46
6 c-46 6 -46 6 -28 -14 11 -12 27 -21 36 -21 9 0 21 -5 28 -12 7 -7 29 -13 49
-14 21 -2 49 -6 63 -9 106 -25 512 -26 750 -1 19 2 73 7 120 10 47 4 92 9 100
11 8 2 46 6 83 10 37 3 78 8 90 11 12 2 36 6 52 9 26 3 108 20 205 40 54 12
127 38 167 61 l42 24 12 -41 c15 -48 38 -60 101 -54 24 2 75 7 113 10 97 7
118 12 204 45 41 16 77 28 79 26 8 -8 -86 -56 -148 -76 -54 -18 -223 -59 -305
-74 -102 -20 -219 -62 -315 -114 -133 -72 -194 -101 -210 -102 -9 0 -20 -4
-25 -9 -12 -10 -149 -53 -258 -81 -43 -11 -81 -22 -86 -24 -4 -3 -29 -7 -57
-11 -50 -6 -89 -12 -134 -20 -14 -3 -38 -7 -55 -10 -16 -3 -41 -7 -55 -10 -29
-6 -113 -13 -250 -20 -52 -3 -120 -9 -150 -13 -30 -4 -91 -7 -135 -6 -197 6
-293 12 -304 18 -6 4 -19 9 -29 11 -10 2 -48 16 -83 33 -101 45 -172 130 -199
238 -12 49 -12 53 10 85 80 114 215 195 362 215 24 4 84 19 133 34 50 15 94
28 99 29 4 0 5 -20 1 -46z m1921 -722 c-3 -32 -8 -65 -10 -72 -3 -8 -7 -31
-10 -51 -3 -21 -11 -59 -17 -85 -6 -27 -13 -57 -15 -68 -7 -35 -13 -59 -27
-118 -8 -32 -15 -85 -15 -118 0 -33 -2 -62 -4 -65 -3 -2 -13 5 -23 16 -25 27
-38 25 -33 -5 7 -37 -9 -30 -22 9 -14 44 -18 104 -9 144 4 18 3 32 -3 32 -12
0 -38 -62 -38 -92 0 -13 -1 -41 -1 -63 -1 -47 9 -144 17 -156 3 -5 1 -9 -4 -9
-14 0 -52 104 -56 152 -1 3 -5 10 -9 15 -5 4 -8 -6 -6 -22 2 -17 0 -36 -5 -43
-12 -20 12 -102 42 -146 34 -49 68 -74 108 -79 29 -5 34 -1 57 42 14 25 29 64
32 86 11 58 14 60 41 24 17 -24 24 -28 24 -15 0 16 1 16 16 1 21 -21 29 -13
14 15 -6 12 -9 29 -6 37 4 9 2 21 -3 27 -5 6 -12 22 -16 36 -5 15 11 0 40 -38
50 -67 71 -76 39 -17 -14 27 -16 37 -7 46 9 9 18 -2 39 -49 14 -34 30 -60 34
-57 6 4 -13 85 -35 150 -6 17 -3 16 15 -5 l22 -25 -7 28 c-9 43 14 29 48 -28
33 -57 45 -135 28 -186 -6 -19 -32 -56 -56 -84 -25 -27 -47 -57 -50 -65 -14
-42 -167 -102 -255 -101 -42 0 -72 9 -128 36 -62 31 -80 47 -122 103 -61 84
-88 158 -83 230 5 53 40 139 73 174 9 10 23 31 31 46 7 15 31 43 52 63 34 32
43 49 46 82 1 5 6 5 11 2 6 -4 10 7 10 24 0 38 8 39 37 4 l22 -28 -9 33 c-10
38 -2 41 24 7 17 -23 44 -37 31 -16 -3 5 -1 12 4 15 21 13 4 67 -31 102 -20
19 -43 56 -52 81 -21 62 -20 70 5 42 14 -17 22 -20 25 -11 3 6 14 12 25 12 10
0 19 7 19 15 0 8 6 12 13 10 6 -3 35 4 62 14 28 11 54 20 58 21 5 0 6 -26 3
-59z m-421 -81 c3 -5 -15 -24 -40 -42 -25 -18 -41 -34 -36 -36 6 -2 8 -14 5
-27 -3 -13 -1 -32 5 -43 7 -13 7 -22 -1 -30 -7 -7 -9 -12 -5 -12 4 0 3 -9 -3
-19 -7 -14 -7 -22 2 -27 7 -4 14 -2 16 6 8 23 59 70 77 70 11 0 15 5 11 15 -3
9 3 19 17 26 12 7 28 18 35 26 21 20 30 7 25 -34 -13 -106 -75 -204 -140 -222
-20 -6 -39 -8 -43 -6 -4 3 -15 -4 -25 -15 -10 -11 -15 -20 -10 -20 4 0 3 -6
-2 -12 -6 -7 -13 -24 -16 -38 -4 -14 -22 -52 -42 -85 -20 -32 -51 -86 -69
-120 -44 -81 -66 -115 -77 -115 -5 0 -55 -23 -112 -51 -146 -73 -522 -188
-620 -190 -132 -2 -195 51 -237 203 -11 40 -20 75 -20 78 -1 29 -37 112 -94
214 -51 92 -98 214 -88 230 2 5 17 -25 32 -66 15 -40 43 -96 62 -123 34 -49
86 -168 93 -215 3 -18 59 -161 65 -165 11 -7 96 52 125 87 29 34 28 52 -1 54
-57 4 -82 10 -109 28 -39 26 -45 35 -45 69 0 27 2 28 33 21 17 -4 46 -7 62 -6
141 5 264 12 281 17 14 3 31 -4 48 -20 36 -33 46 -31 47 8 3 57 0 79 -12 94
-16 18 -64 13 -64 -7 0 -9 7 -14 18 -12 36 6 15 -16 -30 -30 -49 -16 -122 -14
-154 2 -29 16 -82 21 -130 12 -31 -6 -56 -5 -73 2 l-26 11 25 32 c18 22 42 36
82 48 31 9 65 22 77 30 12 7 39 17 61 21 52 9 66 21 61 51 -6 32 -38 85 -55
91 -10 3 -11 0 -2 -17 9 -16 9 -27 0 -43 -18 -35 -29 -39 -94 -34 -45 4 -70 1
-99 -13 -47 -22 -84 -18 -109 12 -28 36 -30 62 -8 112 12 26 21 55 21 64 1 52
61 58 235 21 28 -6 73 -13 100 -15 28 -2 68 -7 90 -9 47 -6 136 -7 185 -2 19
2 73 7 120 10 197 15 201 16 383 95 75 33 137 57 137 53 0 -3 5 -1 12 6 15 15
35 16 43 2z m-1635 -356 c0 -21 37 -91 76 -145 35 -47 42 -69 24 -69 -5 0 -10
-9 -10 -20 0 -11 -7 -36 -14 -55 -16 -37 -9 -43 25 -25 14 8 19 7 19 -3 0 -17
-58 -66 -79 -68 -9 -1 -25 -3 -36 -4 -134 -20 -138 -20 -198 20 -30 20 -67 54
-82 74 -30 44 -48 98 -34 106 5 4 9 2 9 -4 0 -19 94 -106 140 -130 67 -35 120
-52 115 -38 -3 7 17 21 43 33 45 20 49 24 52 60 8 100 5 115 -39 198 -30 57
-41 103 -21 91 6 -3 10 -13 10 -21z m-160 -240 c14 -3 34 -9 45 -12 11 -3 24
-6 29 -7 17 0 18 -25 0 -25 -54 0 -144 50 -144 80 0 6 10 1 22 -10 13 -11 34
-23 48 -26z m240 -173 c0 -15 -37 -23 -62 -14 -20 6 -18 8 17 14 22 3 41 7 43
8 1 0 2 -3 2 -8z m175 -68 c27 -124 115 -288 208 -388 53 -56 67 -97 43 -124
-17 -19 -98 -41 -150 -41 -41 0 -50 -9 -32 -29 19 -23 36 -78 41 -142 5 -57 0
-52 -29 31 -32 92 -81 154 -180 229 -168 126 -300 201 -384 216 -16 2 -48 12
-73 20 -24 9 -63 18 -86 21 -24 2 -64 6 -89 9 -51 5 -71 15 -33 16 52 1 380
63 400 75 4 2 24 6 45 10 38 5 182 65 254 104 47 26 59 25 65 -7z m2030 -123
c-3 -5 -10 -10 -16 -10 -5 0 -28 -9 -52 -19 -23 -11 -60 -25 -82 -31 -54 -17
-169 -74 -219 -110 -23 -16 -77 -54 -121 -84 -86 -58 -161 -132 -214 -209 -39
-57 -81 -156 -81 -191 0 -23 -20 -43 -45 -45 -34 -2 -103 -15 -123 -22 -13 -5
-36 -11 -52 -14 -37 -7 -234 -86 -320 -130 -76 -38 -110 -57 -203 -114 -107
-66 -101 -68 -93 31 9 111 16 146 57 271 39 122 219 317 388 422 9 6 18 13 21
17 21 28 319 150 396 163 21 3 63 12 94 20 66 16 111 23 210 30 41 2 111 7
155 11 44 3 115 7 158 9 43 2 81 6 85 9 10 10 64 7 57 -4z"/>
<path d="M2825 1880 c3 -5 8 -10 11 -10 2 0 4 5 4 10 0 6 -5 10 -11 10 -5 0
-7 -4 -4 -10z"/>
<path d="M3232 1422 c-13 -38 -49 -75 -89 -93 -18 -8 -33 -17 -33 -21 0 -4 15
-1 34 7 19 8 42 12 51 9 11 -5 21 8 40 50 27 61 30 76 16 76 -5 0 -13 -13 -19
-28z"/>
<path d="M780 1415 c0 -8 74 -51 98 -57 37 -10 25 0 -38 31 -33 17 -60 28 -60
26z"/>
</g>
</svg>
